<svg xmlns="http://www.w3.org/2000/svg" viewBox="0 0 24 24" fill="currentColor" width="24" height="24">
  <path d="M12 2L2 7v10c0 5.55 3.84 10.74 9 12 5.16-1.26 9-6.45 9-12V7l-10-5z" opacity="0.3"/>
  <path d="M5.5 15.5L7 14l2.5 2.5L11 14l1.5 1.5-2.5 2.5L12.5 19l-1.5 1.5-2.5-2.5L6 20.5 4.5 19l2.5-2.5L5.5 15.5z"/>
  <path d="M19.5 12.5c0 .83-.67 1.5-1.5 1.5s-1.5-.67-1.5-1.5.67-1.5 1.5-1.5 1.5.67 1.5 1.5z"/>
  <path d="M19.5 8.5c0 .83-.67 1.5-1.5 1.5s-1.5-.67-1.5-1.5.67-1.5 1.5-1.5 1.5.67 1.5 1.5z"/>
</svg>