<svg xmlns="http://www.w3.org/2000/svg" viewBox="0 0 24 24" fill="currentColor" width="24" height="24">
  <path d="M12 2C6.48 2 2 6.48 2 12c0 1.19.22 2.34.6 3.41C.93 16.64 0 18.19 0 20c0 2.21 1.79 4 4 4 .46 0 .9-.08 1.31-.23C6.62 23.54 9.11 24 12 24s5.38-.46 7.69-1.23c.41.15.85.23 1.31.23 2.21 0 4-1.79 4-4 0-1.81-.93-3.36-2.6-4.59.38-1.07.6-2.22.6-3.41 0-5.52-4.48-10-10-10zm0 18c-3.31 0-6-2.69-6-6s2.69-6 6-6 6 2.69 6 6-2.69 6-6 6z"/>
  <circle cx="9" cy="12" r="1.5"/>
  <circle cx="15" cy="12" r="1.5"/>
</svg>